<mxfile host="app.diagrams.net" agent="Mozilla/5.0 (Windows NT 10.0; Win64; x64) AppleWebKit/537.36 (KHTML, like Gecko) Chrome/133.0.0.0 Safari/537.36" version="26.0.16">
  <diagram name="第 1 页" id="szlSoUWNDqMowmOYoolL">
    <mxGraphModel dx="1434" dy="746" grid="1" gridSize="10" guides="1" tooltips="1" connect="1" arrows="1" fold="1" page="1" pageScale="1" pageWidth="827" pageHeight="1169" math="0" shadow="0">
      <root>
        <mxCell id="0" />
        <mxCell id="1" parent="0" />
        <mxCell id="-bMfJHeUIQ-Bebi2H-15-12" style="edgeStyle=orthogonalEdgeStyle;rounded=0;orthogonalLoop=1;jettySize=auto;html=1;entryX=0;entryY=0.25;entryDx=0;entryDy=0;exitX=1;exitY=0.25;exitDx=0;exitDy=0;" edge="1" parent="1" source="-bMfJHeUIQ-Bebi2H-15-1" target="-bMfJHeUIQ-Bebi2H-15-4">
          <mxGeometry relative="1" as="geometry" />
        </mxCell>
        <mxCell id="-bMfJHeUIQ-Bebi2H-15-1" value="function Person(){&lt;div&gt;}&lt;/div&gt;" style="rounded=0;whiteSpace=wrap;html=1;" vertex="1" parent="1">
          <mxGeometry x="150" y="470" width="130" height="60" as="geometry" />
        </mxCell>
        <mxCell id="-bMfJHeUIQ-Bebi2H-15-7" style="edgeStyle=orthogonalEdgeStyle;rounded=0;orthogonalLoop=1;jettySize=auto;html=1;entryX=0.25;entryY=1;entryDx=0;entryDy=0;exitX=0.231;exitY=0;exitDx=0;exitDy=0;exitPerimeter=0;" edge="1" parent="1" source="-bMfJHeUIQ-Bebi2H-15-2" target="-bMfJHeUIQ-Bebi2H-15-1">
          <mxGeometry relative="1" as="geometry" />
        </mxCell>
        <mxCell id="-bMfJHeUIQ-Bebi2H-15-8" style="edgeStyle=orthogonalEdgeStyle;rounded=0;orthogonalLoop=1;jettySize=auto;html=1;entryX=0.5;entryY=1;entryDx=0;entryDy=0;" edge="1" parent="1" source="-bMfJHeUIQ-Bebi2H-15-2" target="-bMfJHeUIQ-Bebi2H-15-4">
          <mxGeometry relative="1" as="geometry" />
        </mxCell>
        <mxCell id="-bMfJHeUIQ-Bebi2H-15-2" value="var xm=new Person();&lt;div&gt;xm.__proto__&lt;/div&gt;&lt;div&gt;xm.__proto__.constructor&lt;/div&gt;" style="rounded=0;whiteSpace=wrap;html=1;align=left;" vertex="1" parent="1">
          <mxGeometry x="150" y="630" width="140" height="80" as="geometry" />
        </mxCell>
        <mxCell id="-bMfJHeUIQ-Bebi2H-15-28" style="edgeStyle=orthogonalEdgeStyle;rounded=0;orthogonalLoop=1;jettySize=auto;html=1;entryX=0.5;entryY=1;entryDx=0;entryDy=0;" edge="1" parent="1" source="-bMfJHeUIQ-Bebi2H-15-3" target="-bMfJHeUIQ-Bebi2H-15-5">
          <mxGeometry relative="1" as="geometry" />
        </mxCell>
        <mxCell id="-bMfJHeUIQ-Bebi2H-15-3" value="Object.pototype" style="rounded=0;whiteSpace=wrap;html=1;" vertex="1" parent="1">
          <mxGeometry x="480" y="340" width="120" height="60" as="geometry" />
        </mxCell>
        <mxCell id="-bMfJHeUIQ-Bebi2H-15-26" style="edgeStyle=orthogonalEdgeStyle;rounded=0;orthogonalLoop=1;jettySize=auto;html=1;entryX=0.5;entryY=1;entryDx=0;entryDy=0;" edge="1" parent="1" source="-bMfJHeUIQ-Bebi2H-15-4" target="-bMfJHeUIQ-Bebi2H-15-3">
          <mxGeometry relative="1" as="geometry" />
        </mxCell>
        <mxCell id="-bMfJHeUIQ-Bebi2H-15-4" value="共享属性和方法" style="rounded=0;whiteSpace=wrap;html=1;" vertex="1" parent="1">
          <mxGeometry x="480" y="470" width="120" height="60" as="geometry" />
        </mxCell>
        <mxCell id="-bMfJHeUIQ-Bebi2H-15-5" value="NULL" style="rounded=1;whiteSpace=wrap;html=1;" vertex="1" parent="1">
          <mxGeometry x="480" y="210" width="120" height="60" as="geometry" />
        </mxCell>
        <mxCell id="-bMfJHeUIQ-Bebi2H-15-11" style="edgeStyle=orthogonalEdgeStyle;rounded=0;orthogonalLoop=1;jettySize=auto;html=1;exitX=0;exitY=0.9;exitDx=0;exitDy=0;exitPerimeter=0;" edge="1" parent="1" source="-bMfJHeUIQ-Bebi2H-15-4">
          <mxGeometry relative="1" as="geometry">
            <mxPoint x="280" y="524" as="targetPoint" />
          </mxGeometry>
        </mxCell>
        <mxCell id="-bMfJHeUIQ-Bebi2H-15-13" value="构造函数" style="text;html=1;align=center;verticalAlign=middle;resizable=0;points=[];autosize=1;strokeColor=none;fillColor=none;" vertex="1" parent="1">
          <mxGeometry x="60" y="485" width="70" height="30" as="geometry" />
        </mxCell>
        <mxCell id="-bMfJHeUIQ-Bebi2H-15-14" value="对象实例" style="text;html=1;align=center;verticalAlign=middle;resizable=0;points=[];autosize=1;strokeColor=none;fillColor=none;" vertex="1" parent="1">
          <mxGeometry x="60" y="655" width="70" height="30" as="geometry" />
        </mxCell>
        <mxCell id="-bMfJHeUIQ-Bebi2H-15-15" value="原型对象：prototype" style="text;html=1;align=center;verticalAlign=middle;resizable=0;points=[];autosize=1;strokeColor=none;fillColor=none;" vertex="1" parent="1">
          <mxGeometry x="620" y="485" width="130" height="30" as="geometry" />
        </mxCell>
        <mxCell id="-bMfJHeUIQ-Bebi2H-15-18" value="Person.pototype" style="text;html=1;align=center;verticalAlign=middle;resizable=0;points=[];autosize=1;strokeColor=none;fillColor=none;" vertex="1" parent="1">
          <mxGeometry x="304" y="455" width="110" height="30" as="geometry" />
        </mxCell>
        <mxCell id="-bMfJHeUIQ-Bebi2H-15-19" value="&lt;span style=&quot;text-align: left; text-wrap-mode: wrap;&quot;&gt;xm.__proto__.constructor&lt;/span&gt;" style="text;html=1;align=center;verticalAlign=middle;resizable=0;points=[];autosize=1;strokeColor=none;fillColor=none;" vertex="1" parent="1">
          <mxGeometry x="30" y="558" width="160" height="30" as="geometry" />
        </mxCell>
        <mxCell id="-bMfJHeUIQ-Bebi2H-15-23" style="edgeStyle=orthogonalEdgeStyle;rounded=0;orthogonalLoop=1;jettySize=auto;html=1;entryX=0.8;entryY=0.05;entryDx=0;entryDy=0;entryPerimeter=0;exitX=0.838;exitY=0.95;exitDx=0;exitDy=0;exitPerimeter=0;" edge="1" parent="1" source="-bMfJHeUIQ-Bebi2H-15-1" target="-bMfJHeUIQ-Bebi2H-15-2">
          <mxGeometry relative="1" as="geometry" />
        </mxCell>
        <mxCell id="-bMfJHeUIQ-Bebi2H-15-24" value="new Person();" style="text;html=1;align=center;verticalAlign=middle;resizable=0;points=[];autosize=1;strokeColor=none;fillColor=none;" vertex="1" parent="1">
          <mxGeometry x="220" y="558" width="100" height="30" as="geometry" />
        </mxCell>
        <mxCell id="-bMfJHeUIQ-Bebi2H-15-25" value="Person.pototype.constructor" style="text;html=1;align=center;verticalAlign=middle;resizable=0;points=[];autosize=1;strokeColor=none;fillColor=none;" vertex="1" parent="1">
          <mxGeometry x="290" y="500" width="170" height="30" as="geometry" />
        </mxCell>
        <mxCell id="-bMfJHeUIQ-Bebi2H-15-27" value="Person.pototype.__proto__" style="text;html=1;align=center;verticalAlign=middle;resizable=0;points=[];autosize=1;strokeColor=none;fillColor=none;" vertex="1" parent="1">
          <mxGeometry x="540" y="418" width="170" height="30" as="geometry" />
        </mxCell>
        <mxCell id="-bMfJHeUIQ-Bebi2H-15-29" value="Object.pototype.__proto__" style="text;html=1;align=center;verticalAlign=middle;resizable=0;points=[];autosize=1;strokeColor=none;fillColor=none;" vertex="1" parent="1">
          <mxGeometry x="560" y="290" width="160" height="30" as="geometry" />
        </mxCell>
        <mxCell id="-bMfJHeUIQ-Bebi2H-15-33" style="edgeStyle=orthogonalEdgeStyle;rounded=0;orthogonalLoop=1;jettySize=auto;html=1;entryX=0;entryY=0.5;entryDx=0;entryDy=0;" edge="1" parent="1" source="-bMfJHeUIQ-Bebi2H-15-30" target="-bMfJHeUIQ-Bebi2H-15-3">
          <mxGeometry relative="1" as="geometry" />
        </mxCell>
        <mxCell id="-bMfJHeUIQ-Bebi2H-15-30" value="Object" style="rounded=0;whiteSpace=wrap;html=1;" vertex="1" parent="1">
          <mxGeometry x="150" y="340" width="120" height="60" as="geometry" />
        </mxCell>
        <mxCell id="-bMfJHeUIQ-Bebi2H-15-34" value="xm.__proto__" style="text;html=1;align=center;verticalAlign=middle;resizable=0;points=[];autosize=1;strokeColor=none;fillColor=none;" vertex="1" parent="1">
          <mxGeometry x="400" y="668" width="100" height="30" as="geometry" />
        </mxCell>
      </root>
    </mxGraphModel>
  </diagram>
</mxfile>
